<svg version="1.0" xmlns="http://www.w3.org/2000/svg" width="682.667" height="682.667" viewBox="0 0 512 512"><path d="M171.5.6c-1.6.2-7 .9-12 1.5C106.1 8.6 55 42.5 26.5 90.5c-40.4 68-32.1 155.9 20.4 215.2 28.4 32.1 64 51.9 107.6 60 13.7 2.5 46.7 2.5 60.5-.1 29.6-5.4 55.8-16.4 78-32.8l6.5-4.8 2.9 3.2c3.5 4.1 7.6 12.5 7.6 15.8 0 1.4-.9 4-2 5.8-2.7 4.4-2.5 10.2.5 16.3 2.8 5.4 3.1 5.7 81.4 86.7 54.1 56 54.4 56.2 64.3 56.2 2.4 0 6.2-.9 8.6-2 4.8-2.2 40.9-36 44.9-42.2 3.6-5.3 4.3-14.8 1.6-20.9-1.5-3.4-17.9-20.9-65-69.5-34.7-35.8-64.8-66.5-66.9-68.2-2.1-1.8-6.3-4-9.2-4.9-5.2-1.7-5.4-1.7-9.5.5-2.3 1.2-5.6 2.2-7.3 2.2-4.1 0-12.2-4.2-16.4-8.5l-3.3-3.4 5.9-8.8c14.4-21.5 24.7-47.9 28.9-74.3 3.5-21.5 3-41.7-1.6-65C350.2 72.9 288.7 14.1 213.5 2.4c-9.1-1.4-36.4-2.6-42-1.8zm38.8 59.5c36.5 7.3 68.4 31 86 63.9 32.4 60.3 11.3 135.1-47.8 169.8-47.6 27.9-109.9 20.7-150.4-17.4-48.4-45.5-53.4-120-11.5-172.2 17.3-21.7 40.8-36.3 70.1-43.7 15-3.8 35.9-3.9 53.6-.4z" /></svg>
